<?xml version="1.0" encoding="UTF-8" standalone="no"?>
<!DOCTYPE svg PUBLIC "-//W3C//DTD SVG 1.1//EN"
 "http://www.w3.org/Graphics/SVG/1.1/DTD/svg11.dtd">
<!-- Generated by graphviz version 2.42.3 (20191010.1750)
 -->
<!-- Title: g Pages: 1 -->
<svg width="1030pt" height="594pt"
 viewBox="0.00 0.00 1029.94 593.54" xmlns="http://www.w3.org/2000/svg" xmlns:xlink="http://www.w3.org/1999/xlink">
<g id="graph0" class="graph" transform="scale(1 1) rotate(0) translate(4 589.54)">
<title>g</title>
<polygon fill="white" stroke="transparent" points="-4,4 -4,-589.54 1025.94,-589.54 1025.94,4 -4,4"/>
<!-- surveying_decision -->
<g id="node1" class="node">
<title>surveying_decision</title>
<ellipse fill="none" stroke="black" cx="456.94" cy="-494.54" rx="142.46" ry="18"/>
<text text-anchor="middle" x="456.94" y="-490.34" font-family="Times,serif" font-size="14.00">Decide what kind of survey you need</text>
</g>
<!-- diy_survey -->
<g id="node2" class="node">
<title>diy_survey</title>
<ellipse fill="none" stroke="black" cx="208.94" cy="-421.54" rx="208.88" ry="18"/>
<text text-anchor="middle" x="208.94" y="-417.34" font-family="Times,serif" font-size="14.00">DIY Survey (eg. drone, camera or phone images/movie)</text>
</g>
<!-- surveying_decision&#45;&gt;diy_survey -->
<g id="edge4" class="edge">
<title>surveying_decision&#45;&gt;diy_survey</title>
<path fill="none" stroke="black" d="M402.21,-477.87C364.99,-467.22 315.52,-453.05 275.95,-441.72"/>
<polygon fill="black" stroke="black" points="276.69,-438.3 266.11,-438.91 274.76,-445.03 276.69,-438.3"/>
</g>
<!-- pointcloud_surveyor -->
<g id="node3" class="node">
<title>pointcloud_surveyor</title>
<ellipse fill="none" stroke="black" cx="456.94" cy="-367.54" rx="144" ry="18"/>
<text text-anchor="middle" x="456.94" y="-363.34" font-family="Times,serif" font-size="14.00">Pointcloud Surveyor</text>
</g>
<!-- surveying_decision&#45;&gt;pointcloud_surveyor -->
<g id="edge2" class="edge">
<title>surveying_decision&#45;&gt;pointcloud_surveyor</title>
<path fill="none" stroke="black" d="M456.94,-476.42C456.94,-455.69 456.94,-420.49 456.94,-395.96"/>
<polygon fill="black" stroke="black" points="460.44,-395.85 456.94,-385.85 453.44,-395.85 460.44,-395.85"/>
</g>
<!-- traditional_surveyor -->
<g id="node4" class="node">
<title>traditional_surveyor</title>
<ellipse fill="none" stroke="green" cx="615.94" cy="-208.77" rx="144" ry="18"/>
<text text-anchor="middle" x="615.94" y="-204.57" font-family="Times,serif" font-size="14.00" fill="green">Traditional Surveyor</text>
</g>
<!-- surveying_decision&#45;&gt;traditional_surveyor -->
<g id="edge3" class="edge">
<title>surveying_decision&#45;&gt;traditional_surveyor</title>
<path fill="none" stroke="green" d="M494.19,-477.09C528.65,-459.71 578.02,-428.8 601.94,-385.54 627.91,-338.56 624.87,-273.47 620.38,-237.12"/>
<polygon fill="green" stroke="green" points="623.79,-236.25 618.97,-226.81 616.86,-237.2 623.79,-236.25"/>
</g>
<!-- open_source_photogrammetry -->
<g id="node10" class="node">
<title>open_source_photogrammetry</title>
<ellipse fill="none" stroke="black" cx="217.94" cy="-313.54" rx="144" ry="18"/>
<text text-anchor="middle" x="217.94" y="-309.34" font-family="Times,serif" font-size="14.00">Opendronemap (uses OpenSfM)</text>
</g>
<!-- diy_survey&#45;&gt;open_source_photogrammetry -->
<g id="edge9" class="edge">
<title>diy_survey&#45;&gt;open_source_photogrammetry</title>
<path fill="none" stroke="black" d="M199.56,-403.22C197.06,-397.72 194.7,-391.52 193.44,-385.54 190.12,-369.89 188.62,-364.8 193.44,-349.54 194.44,-346.36 195.85,-343.21 197.49,-340.19"/>
<polygon fill="black" stroke="black" points="200.55,-341.9 202.92,-331.57 194.63,-338.16 200.55,-341.9"/>
<text text-anchor="middle" x="249.19" y="-363.34" font-family="Times,serif" font-size="14.00">Video/images+GPS</text>
</g>
<!-- open_source_point_cloud_postprocessing -->
<g id="node7" class="node">
<title>open_source_point_cloud_postprocessing</title>
<ellipse fill="none" stroke="black" cx="265.94" cy="-208.77" rx="169.85" ry="36.54"/>
<text text-anchor="end" x="377.92" y="-219.57" font-family="Times,serif" font-size="14.00">Open source point cloud postprocessing</text>
<text text-anchor="middle" x="265.94" y="-189.57" font-family="Times,serif" font-size="14.00">(meshlab/point cloud library)</text>
</g>
<!-- pointcloud_surveyor&#45;&gt;open_source_point_cloud_postprocessing -->
<g id="edge8" class="edge">
<title>pointcloud_surveyor&#45;&gt;open_source_point_cloud_postprocessing</title>
<path fill="none" stroke="black" d="M436.46,-349.58C419.05,-335.18 393.38,-313.97 370.94,-295.54 353.19,-280.97 333.72,-265.04 316.42,-250.92"/>
<polygon fill="black" stroke="black" points="318.6,-248.18 308.64,-244.56 314.17,-253.6 318.6,-248.18"/>
<text text-anchor="middle" x="460.43" y="-309.34" font-family="Times,serif" font-size="14.00">Point cloud data</text>
</g>
<!-- inkscape -->
<g id="node6" class="node">
<title>inkscape</title>
<ellipse fill="none" stroke="green" cx="571.94" cy="-104" rx="144" ry="18"/>
<text text-anchor="middle" x="571.94" y="-99.8" font-family="Times,serif" font-size="14.00" fill="green">Inkscape</text>
</g>
<!-- traditional_surveyor&#45;&gt;inkscape -->
<g id="edge5" class="edge">
<title>traditional_surveyor&#45;&gt;inkscape</title>
<path fill="none" stroke="green" d="M604.54,-190.42C598.18,-180.16 590.51,-166.71 585.26,-154 582.37,-147.02 579.93,-139.23 577.95,-131.95"/>
<polygon fill="green" stroke="green" points="581.31,-130.97 575.47,-122.13 574.53,-132.69 581.31,-130.97"/>
<text text-anchor="middle" x="597.78" y="-142.8" font-family="Times,serif" font-size="14.00" fill="green">PDF</text>
</g>
<!-- closed_source_tool -->
<g id="node9" class="node">
<title>closed_source_tool</title>
<ellipse fill="none" stroke="black" stroke-dasharray="5,2" cx="877.94" cy="-104" rx="144" ry="18"/>
<text text-anchor="middle" x="877.94" y="-99.8" font-family="Times,serif" font-size="14.00">Closed source tool (eg. revit)</text>
</g>
<!-- traditional_surveyor&#45;&gt;closed_source_tool -->
<g id="edge6" class="edge">
<title>traditional_surveyor&#45;&gt;closed_source_tool</title>
<path fill="none" stroke="black" stroke-dasharray="5,2" d="M657.45,-191.49C703.31,-173.5 777.19,-144.52 826.64,-125.12"/>
<polygon fill="black" stroke="black" points="828.15,-128.29 836.18,-121.38 825.6,-121.77 828.15,-128.29"/>
<text text-anchor="middle" x="801.66" y="-142.8" font-family="Times,serif" font-size="14.00">DWG</text>
</g>
<!-- you -->
<g id="node5" class="node">
<title>you</title>
<ellipse fill="none" stroke="black" cx="456.94" cy="-567.54" rx="144" ry="18"/>
<text text-anchor="middle" x="456.94" y="-563.34" font-family="Times,serif" font-size="14.00">You</text>
</g>
<!-- you&#45;&gt;surveying_decision -->
<g id="edge1" class="edge">
<title>you&#45;&gt;surveying_decision</title>
<path fill="none" stroke="black" d="M456.94,-549.35C456.94,-541.33 456.94,-531.59 456.94,-522.61"/>
<polygon fill="black" stroke="black" points="460.44,-522.57 456.94,-512.57 453.44,-522.57 460.44,-522.57"/>
</g>
<!-- blender -->
<g id="node8" class="node">
<title>blender</title>
<ellipse fill="none" stroke="green" cx="571.94" cy="-18" rx="144" ry="18"/>
<text text-anchor="middle" x="571.94" y="-13.8" font-family="Times,serif" font-size="14.00" fill="green">Blender</text>
</g>
<!-- inkscape&#45;&gt;blender -->
<g id="edge13" class="edge">
<title>inkscape&#45;&gt;blender</title>
<path fill="none" stroke="green" d="M571.94,-85.6C571.94,-74.26 571.94,-59.23 571.94,-46.32"/>
<polygon fill="green" stroke="green" points="575.44,-46.1 571.94,-36.1 568.44,-46.1 575.44,-46.1"/>
<text text-anchor="middle" x="585.94" y="-56.8" font-family="Times,serif" font-size="14.00" fill="green">SVG</text>
</g>
<!-- blender_terrain_import -->
<g id="node11" class="node">
<title>blender_terrain_import</title>
<ellipse fill="none" stroke="black" cx="265.94" cy="-104" rx="144" ry="18"/>
<text text-anchor="middle" x="265.94" y="-99.8" font-family="Times,serif" font-size="14.00">Blender terrain import</text>
</g>
<!-- open_source_point_cloud_postprocessing&#45;&gt;blender_terrain_import -->
<g id="edge12" class="edge">
<title>open_source_point_cloud_postprocessing&#45;&gt;blender_terrain_import</title>
<path fill="none" stroke="black" d="M265.94,-171.83C265.94,-158.89 265.94,-144.5 265.94,-132.41"/>
<polygon fill="black" stroke="black" points="269.44,-132.05 265.94,-122.05 262.44,-132.05 269.44,-132.05"/>
<text text-anchor="middle" x="331.78" y="-142.8" font-family="Times,serif" font-size="14.00">Triangular terrain mesh</text>
</g>
<!-- closed_source_tool&#45;&gt;blender -->
<g id="edge7" class="edge">
<title>closed_source_tool&#45;&gt;blender</title>
<path fill="none" stroke="black" stroke-dasharray="5,2" d="M821.1,-87.4C769.44,-73.22 693.18,-52.28 638.65,-37.31"/>
<polygon fill="black" stroke="black" points="639.3,-33.86 628.73,-34.59 637.45,-40.61 639.3,-33.86"/>
<text text-anchor="middle" x="761.99" y="-56.8" font-family="Times,serif" font-size="14.00">Export</text>
</g>
<!-- open_source_photogrammetry&#45;&gt;open_source_point_cloud_postprocessing -->
<g id="edge11" class="edge">
<title>open_source_photogrammetry&#45;&gt;open_source_point_cloud_postprocessing</title>
<path fill="none" stroke="black" d="M226.08,-295.11C231.26,-284.02 238.22,-269.12 244.87,-254.87"/>
<polygon fill="black" stroke="black" points="248.12,-256.19 249.18,-245.65 241.78,-253.23 248.12,-256.19"/>
<text text-anchor="middle" x="273.02" y="-266.34" font-family="Times,serif" font-size="14.00">Point cloud</text>
</g>
<!-- blender_terrain_import&#45;&gt;blender -->
<g id="edge10" class="edge">
<title>blender_terrain_import&#45;&gt;blender</title>
<path fill="none" stroke="black" d="M322.78,-87.4C374.44,-73.22 450.7,-52.28 505.23,-37.31"/>
<polygon fill="black" stroke="black" points="506.43,-40.61 515.14,-34.59 504.57,-33.86 506.43,-40.61"/>
<text text-anchor="middle" x="499.36" y="-56.8" font-family="Times,serif" font-size="14.00">Blender terrain model</text>
</g>
</g>
</svg>
