<?xml version="1.0" encoding="UTF-8" standalone="no"?>
<!DOCTYPE svg PUBLIC "-//W3C//DTD SVG 1.1//EN"
 "http://www.w3.org/Graphics/SVG/1.1/DTD/svg11.dtd">
<!-- Generated by graphviz version 2.42.3 (20191010.1750)
 -->
<!-- Title: g Pages: 1 -->
<svg width="991pt" height="470pt"
 viewBox="0.00 0.00 991.00 470.00" xmlns="http://www.w3.org/2000/svg" xmlns:xlink="http://www.w3.org/1999/xlink">
<g id="graph0" class="graph" transform="scale(1 1) rotate(0) translate(4 466)">
<title>g</title>
<polygon fill="white" stroke="transparent" points="-4,4 -4,-466 987,-466 987,4 -4,4"/>
<!-- surveying_decision -->
<g id="node1" class="node">
<title>surveying_decision</title>
<ellipse fill="none" stroke="black" cx="404" cy="-371" rx="142.46" ry="18"/>
<text text-anchor="middle" x="404" y="-366.8" font-family="Times,serif" font-size="14.00">Decide what kind of survey you need</text>
</g>
<!-- diy_survey -->
<g id="node2" class="node">
<title>diy_survey</title>
<ellipse fill="none" stroke="black" cx="185" cy="-298" rx="151.47" ry="18"/>
<text text-anchor="middle" x="185" y="-293.8" font-family="Times,serif" font-size="14.00">DIY Survey (eg. drone or phone movie)</text>
</g>
<!-- surveying_decision&#45;&gt;diy_survey -->
<g id="edge4" class="edge">
<title>surveying_decision&#45;&gt;diy_survey</title>
<path fill="none" stroke="black" d="M354.85,-354.07C322.11,-343.45 278.91,-329.45 244.27,-318.22"/>
<polygon fill="black" stroke="black" points="245.33,-314.88 234.74,-315.13 243.17,-321.54 245.33,-314.88"/>
</g>
<!-- pointcloud_surveyor -->
<g id="node3" class="node">
<title>pointcloud_surveyor</title>
<ellipse fill="none" stroke="black" cx="404" cy="-244" rx="144" ry="18"/>
<text text-anchor="middle" x="404" y="-239.8" font-family="Times,serif" font-size="14.00">Pointcloud Surveyor</text>
</g>
<!-- surveying_decision&#45;&gt;pointcloud_surveyor -->
<g id="edge2" class="edge">
<title>surveying_decision&#45;&gt;pointcloud_surveyor</title>
<path fill="none" stroke="black" d="M404,-352.88C404,-332.15 404,-296.95 404,-272.42"/>
<polygon fill="black" stroke="black" points="407.5,-272.31 404,-262.31 400.5,-272.31 407.5,-272.31"/>
</g>
<!-- traditional_surveyor -->
<g id="node4" class="node">
<title>traditional_surveyor</title>
<ellipse fill="none" stroke="green" cx="577" cy="-190" rx="144" ry="18"/>
<text text-anchor="middle" x="577" y="-185.8" font-family="Times,serif" font-size="14.00" fill="green">Traditional Surveyor</text>
</g>
<!-- surveying_decision&#45;&gt;traditional_surveyor -->
<g id="edge3" class="edge">
<title>surveying_decision&#45;&gt;traditional_surveyor</title>
<path fill="none" stroke="green" d="M439.72,-353.44C474.37,-335.6 525.99,-304.01 556,-262 565.17,-249.16 570.37,-232.32 573.31,-218.26"/>
<polygon fill="green" stroke="green" points="576.8,-218.62 575.14,-208.16 569.91,-217.38 576.8,-218.62"/>
</g>
<!-- open_source_photogrammetry -->
<g id="node10" class="node">
<title>open_source_photogrammetry</title>
<ellipse fill="none" stroke="black" cx="144" cy="-190" rx="144" ry="18"/>
<text text-anchor="middle" x="144" y="-185.8" font-family="Times,serif" font-size="14.00">Open source photogrammetry</text>
</g>
<!-- diy_survey&#45;&gt;open_source_photogrammetry -->
<g id="edge9" class="edge">
<title>diy_survey&#45;&gt;open_source_photogrammetry</title>
<path fill="none" stroke="black" d="M155.69,-280.15C149.57,-275.14 143.93,-269.07 140.5,-262 133.97,-248.55 134.4,-231.94 136.67,-218.16"/>
<polygon fill="black" stroke="black" points="140.12,-218.78 138.68,-208.28 133.26,-217.38 140.12,-218.78"/>
<text text-anchor="middle" x="196.25" y="-239.8" font-family="Times,serif" font-size="14.00">Video/images+GPS</text>
</g>
<!-- blender_pointcloud_processing -->
<g id="node7" class="node">
<title>blender_pointcloud_processing</title>
<ellipse fill="none" stroke="black" cx="227" cy="-104" rx="144" ry="18"/>
<text text-anchor="middle" x="227" y="-99.8" font-family="Times,serif" font-size="14.00">Blender pointcloud processing</text>
</g>
<!-- pointcloud_surveyor&#45;&gt;blender_pointcloud_processing -->
<g id="edge8" class="edge">
<title>pointcloud_surveyor&#45;&gt;blender_pointcloud_processing</title>
<path fill="none" stroke="black" d="M365.11,-226.66C354.3,-221.38 342.84,-215.04 333.01,-208 314.62,-194.82 313.18,-187.83 297,-172 282.32,-157.64 265.73,-141.75 252.38,-129.04"/>
<polygon fill="black" stroke="black" points="254.6,-126.32 244.94,-121.97 249.78,-131.39 254.6,-126.32"/>
<text text-anchor="middle" x="379.49" y="-185.8" font-family="Times,serif" font-size="14.00">Point cloud data</text>
</g>
<!-- inkscape -->
<g id="node6" class="node">
<title>inkscape</title>
<ellipse fill="none" stroke="green" cx="533" cy="-104" rx="144" ry="18"/>
<text text-anchor="middle" x="533" y="-99.8" font-family="Times,serif" font-size="14.00" fill="green">Inkscape</text>
</g>
<!-- traditional_surveyor&#45;&gt;inkscape -->
<g id="edge5" class="edge">
<title>traditional_surveyor&#45;&gt;inkscape</title>
<path fill="none" stroke="green" d="M568.1,-172C561.95,-160.27 553.67,-144.46 546.69,-131.14"/>
<polygon fill="green" stroke="green" points="549.63,-129.21 541.89,-121.97 543.43,-132.46 549.63,-129.21"/>
<text text-anchor="middle" x="569.84" y="-142.8" font-family="Times,serif" font-size="14.00" fill="green">PDF</text>
</g>
<!-- closed_source_tool -->
<g id="node9" class="node">
<title>closed_source_tool</title>
<ellipse fill="none" stroke="black" stroke-dasharray="5,2" cx="839" cy="-104" rx="144" ry="18"/>
<text text-anchor="middle" x="839" y="-99.8" font-family="Times,serif" font-size="14.00">Closed source tool (eg. revit)</text>
</g>
<!-- traditional_surveyor&#45;&gt;closed_source_tool -->
<g id="edge6" class="edge">
<title>traditional_surveyor&#45;&gt;closed_source_tool</title>
<path fill="none" stroke="black" stroke-dasharray="5,2" d="M626.9,-173C670.42,-159.05 733.64,-138.78 779.73,-124"/>
<polygon fill="black" stroke="black" points="780.83,-127.32 789.29,-120.94 778.7,-120.66 780.83,-127.32"/>
<text text-anchor="middle" x="739.72" y="-142.8" font-family="Times,serif" font-size="14.00">DWG</text>
</g>
<!-- you -->
<g id="node5" class="node">
<title>you</title>
<ellipse fill="none" stroke="black" cx="404" cy="-444" rx="144" ry="18"/>
<text text-anchor="middle" x="404" y="-439.8" font-family="Times,serif" font-size="14.00">You</text>
</g>
<!-- you&#45;&gt;surveying_decision -->
<g id="edge1" class="edge">
<title>you&#45;&gt;surveying_decision</title>
<path fill="none" stroke="black" d="M404,-425.81C404,-417.79 404,-408.05 404,-399.07"/>
<polygon fill="black" stroke="black" points="407.5,-399.03 404,-389.03 400.5,-399.03 407.5,-399.03"/>
</g>
<!-- blender -->
<g id="node8" class="node">
<title>blender</title>
<ellipse fill="none" stroke="green" cx="533" cy="-18" rx="144" ry="18"/>
<text text-anchor="middle" x="533" y="-13.8" font-family="Times,serif" font-size="14.00" fill="green">Blender</text>
</g>
<!-- inkscape&#45;&gt;blender -->
<g id="edge12" class="edge">
<title>inkscape&#45;&gt;blender</title>
<path fill="none" stroke="green" d="M533,-85.6C533,-74.26 533,-59.23 533,-46.32"/>
<polygon fill="green" stroke="green" points="536.5,-46.1 533,-36.1 529.5,-46.1 536.5,-46.1"/>
<text text-anchor="middle" x="547" y="-56.8" font-family="Times,serif" font-size="14.00" fill="green">SVG</text>
</g>
<!-- blender_pointcloud_processing&#45;&gt;blender -->
<g id="edge10" class="edge">
<title>blender_pointcloud_processing&#45;&gt;blender</title>
<path fill="none" stroke="black" d="M283.84,-87.4C335.5,-73.22 411.76,-52.28 466.29,-37.31"/>
<polygon fill="black" stroke="black" points="467.49,-40.61 476.21,-34.59 465.64,-33.86 467.49,-40.61"/>
<text text-anchor="middle" x="460.42" y="-56.8" font-family="Times,serif" font-size="14.00">Blender terrain model</text>
</g>
<!-- closed_source_tool&#45;&gt;blender -->
<g id="edge7" class="edge">
<title>closed_source_tool&#45;&gt;blender</title>
<path fill="none" stroke="black" stroke-dasharray="5,2" d="M782.16,-87.4C730.5,-73.22 654.24,-52.28 599.71,-37.31"/>
<polygon fill="black" stroke="black" points="600.36,-33.86 589.79,-34.59 598.51,-40.61 600.36,-33.86"/>
<text text-anchor="middle" x="723.05" y="-56.8" font-family="Times,serif" font-size="14.00">Export</text>
</g>
<!-- open_source_photogrammetry&#45;&gt;blender_pointcloud_processing -->
<g id="edge11" class="edge">
<title>open_source_photogrammetry&#45;&gt;blender_pointcloud_processing</title>
<path fill="none" stroke="black" d="M160.8,-172C172.95,-159.7 189.54,-142.91 203.07,-129.22"/>
<polygon fill="black" stroke="black" points="205.69,-131.55 210.23,-121.97 200.71,-126.63 205.69,-131.55"/>
</g>
</g>
</svg>
