<?xml version="1.0" encoding="UTF-8" standalone="no"?>
<!DOCTYPE svg PUBLIC "-//W3C//DTD SVG 1.1//EN"
 "http://www.w3.org/Graphics/SVG/1.1/DTD/svg11.dtd">
<!-- Generated by graphviz version 2.42.3 (20191010.1750)
 -->
<!-- Title: g Pages: 1 -->
<svg width="1227pt" height="362pt"
 viewBox="0.00 0.00 1227.49 362.00" xmlns="http://www.w3.org/2000/svg" xmlns:xlink="http://www.w3.org/1999/xlink">
<g id="graph0" class="graph" transform="scale(1 1) rotate(0) translate(4 358)">
<title>g</title>
<polygon fill="white" stroke="transparent" points="-4,4 -4,-358 1223.49,-358 1223.49,4 -4,4"/>
<!-- surveying_decision -->
<g id="node1" class="node">
<title>surveying_decision</title>
<ellipse fill="none" stroke="black" cx="464.49" cy="-263" rx="142.46" ry="18"/>
<text text-anchor="middle" x="464.49" y="-258.8" font-family="Times,serif" font-size="14.00">Decide what kind of survey you need</text>
</g>
<!-- diy_survey -->
<g id="node2" class="node">
<title>diy_survey</title>
<ellipse fill="none" stroke="black" cx="151.49" cy="-190" rx="151.47" ry="18"/>
<text text-anchor="middle" x="151.49" y="-185.8" font-family="Times,serif" font-size="14.00">DIY Survey (eg. drone or phone movie)</text>
</g>
<!-- surveying_decision&#45;&gt;diy_survey -->
<g id="edge4" class="edge">
<title>surveying_decision&#45;&gt;diy_survey</title>
<path fill="none" stroke="black" d="M398.49,-247.03C348.78,-235.75 280.52,-220.27 228.35,-208.44"/>
<polygon fill="black" stroke="black" points="229,-204.99 218.47,-206.19 227.45,-211.82 229,-204.99"/>
</g>
<!-- pointcloud_surveyor -->
<g id="node3" class="node">
<title>pointcloud_surveyor</title>
<ellipse fill="none" stroke="black" cx="464.49" cy="-190" rx="144" ry="18"/>
<text text-anchor="middle" x="464.49" y="-185.8" font-family="Times,serif" font-size="14.00">Pointcloud Surveyor</text>
</g>
<!-- surveying_decision&#45;&gt;pointcloud_surveyor -->
<g id="edge2" class="edge">
<title>surveying_decision&#45;&gt;pointcloud_surveyor</title>
<path fill="none" stroke="black" d="M464.49,-244.81C464.49,-236.79 464.49,-227.05 464.49,-218.07"/>
<polygon fill="black" stroke="black" points="467.99,-218.03 464.49,-208.03 460.99,-218.03 467.99,-218.03"/>
</g>
<!-- traditional_surveyor -->
<g id="node4" class="node">
<title>traditional_surveyor</title>
<ellipse fill="none" stroke="black" cx="770.49" cy="-190" rx="144" ry="18"/>
<text text-anchor="middle" x="770.49" y="-185.8" font-family="Times,serif" font-size="14.00">Traditional Surveyor</text>
</g>
<!-- surveying_decision&#45;&gt;traditional_surveyor -->
<g id="edge3" class="edge">
<title>surveying_decision&#45;&gt;traditional_surveyor</title>
<path fill="none" stroke="black" d="M529.38,-246.94C577.98,-235.67 644.58,-220.21 695.46,-208.41"/>
<polygon fill="black" stroke="black" points="696.47,-211.77 705.42,-206.1 694.89,-204.95 696.47,-211.77"/>
</g>
<!-- open_source_photogrammetry -->
<g id="node10" class="node">
<title>open_source_photogrammetry</title>
<ellipse fill="none" stroke="black" cx="156.49" cy="-104" rx="144" ry="18"/>
<text text-anchor="middle" x="156.49" y="-99.8" font-family="Times,serif" font-size="14.00">Open source photogrammetry</text>
</g>
<!-- diy_survey&#45;&gt;open_source_photogrammetry -->
<g id="edge9" class="edge">
<title>diy_survey&#45;&gt;open_source_photogrammetry</title>
<path fill="none" stroke="black" d="M152.52,-171.6C153.2,-160.26 154.09,-145.23 154.86,-132.32"/>
<polygon fill="black" stroke="black" points="158.37,-132.29 155.47,-122.1 151.38,-131.87 158.37,-132.29"/>
<text text-anchor="middle" x="209.74" y="-142.8" font-family="Times,serif" font-size="14.00">Video/images+GPS</text>
</g>
<!-- blender_pointcloud_processing -->
<g id="node7" class="node">
<title>blender_pointcloud_processing</title>
<ellipse fill="none" stroke="black" cx="463.49" cy="-104" rx="144" ry="18"/>
<text text-anchor="middle" x="463.49" y="-99.8" font-family="Times,serif" font-size="14.00">Blender pointcloud processing</text>
</g>
<!-- pointcloud_surveyor&#45;&gt;blender_pointcloud_processing -->
<g id="edge8" class="edge">
<title>pointcloud_surveyor&#45;&gt;blender_pointcloud_processing</title>
<path fill="none" stroke="black" d="M464.28,-171.6C464.14,-160.26 463.96,-145.23 463.81,-132.32"/>
<polygon fill="black" stroke="black" points="467.31,-132.05 463.69,-122.1 460.31,-132.14 467.31,-132.05"/>
<text text-anchor="middle" x="509.98" y="-142.8" font-family="Times,serif" font-size="14.00">Point cloud data</text>
</g>
<!-- inkscape -->
<g id="node6" class="node">
<title>inkscape</title>
<ellipse fill="none" stroke="black" cx="769.49" cy="-104" rx="144" ry="18"/>
<text text-anchor="middle" x="769.49" y="-99.8" font-family="Times,serif" font-size="14.00">Inkscape</text>
</g>
<!-- traditional_surveyor&#45;&gt;inkscape -->
<g id="edge5" class="edge">
<title>traditional_surveyor&#45;&gt;inkscape</title>
<path fill="none" stroke="black" d="M770.28,-171.6C770.14,-160.26 769.96,-145.23 769.81,-132.32"/>
<polygon fill="black" stroke="black" points="773.31,-132.05 769.69,-122.1 766.31,-132.14 773.31,-132.05"/>
<text text-anchor="middle" x="782.33" y="-142.8" font-family="Times,serif" font-size="14.00">PDF</text>
</g>
<!-- closed_source_tool -->
<g id="node9" class="node">
<title>closed_source_tool</title>
<ellipse fill="none" stroke="black" stroke-dasharray="5,2" cx="1075.49" cy="-104" rx="144" ry="18"/>
<text text-anchor="middle" x="1075.49" y="-99.8" font-family="Times,serif" font-size="14.00">Closed source tool (eg. revit)</text>
</g>
<!-- traditional_surveyor&#45;&gt;closed_source_tool -->
<g id="edge6" class="edge">
<title>traditional_surveyor&#45;&gt;closed_source_tool</title>
<path fill="none" stroke="black" stroke-dasharray="5,2" d="M827.14,-173.4C878.63,-159.22 954.64,-138.28 1008.99,-123.31"/>
<polygon fill="black" stroke="black" points="1010.17,-126.62 1018.88,-120.59 1008.31,-119.87 1010.17,-126.62"/>
<text text-anchor="middle" x="957.2" y="-142.8" font-family="Times,serif" font-size="14.00">DWG</text>
</g>
<!-- you -->
<g id="node5" class="node">
<title>you</title>
<ellipse fill="none" stroke="black" cx="464.49" cy="-336" rx="144" ry="18"/>
<text text-anchor="middle" x="464.49" y="-331.8" font-family="Times,serif" font-size="14.00">You</text>
</g>
<!-- you&#45;&gt;surveying_decision -->
<g id="edge1" class="edge">
<title>you&#45;&gt;surveying_decision</title>
<path fill="none" stroke="black" d="M464.49,-317.81C464.49,-309.79 464.49,-300.05 464.49,-291.07"/>
<polygon fill="black" stroke="black" points="467.99,-291.03 464.49,-281.03 460.99,-291.03 467.99,-291.03"/>
</g>
<!-- blender -->
<g id="node8" class="node">
<title>blender</title>
<ellipse fill="none" stroke="black" cx="576.49" cy="-18" rx="144" ry="18"/>
<text text-anchor="middle" x="576.49" y="-13.8" font-family="Times,serif" font-size="14.00">Blender</text>
</g>
<!-- inkscape&#45;&gt;blender -->
<g id="edge12" class="edge">
<title>inkscape&#45;&gt;blender</title>
<path fill="none" stroke="black" d="M731.82,-86.6C700.96,-73.18 657.14,-54.1 623.9,-39.64"/>
<polygon fill="black" stroke="black" points="624.96,-36.28 614.39,-35.5 622.16,-42.7 624.96,-36.28"/>
<text text-anchor="middle" x="698.49" y="-56.8" font-family="Times,serif" font-size="14.00">SVG</text>
</g>
<!-- blender_pointcloud_processing&#45;&gt;blender -->
<g id="edge10" class="edge">
<title>blender_pointcloud_processing&#45;&gt;blender</title>
<path fill="none" stroke="black" d="M486.08,-86.2C503.06,-73.58 526.52,-56.14 545.29,-42.19"/>
<polygon fill="black" stroke="black" points="547.6,-44.83 553.54,-36.06 543.43,-39.21 547.6,-44.83"/>
<text text-anchor="middle" x="587.91" y="-56.8" font-family="Times,serif" font-size="14.00">Blender terrain model</text>
</g>
<!-- closed_source_tool&#45;&gt;blender -->
<g id="edge7" class="edge">
<title>closed_source_tool&#45;&gt;blender</title>
<path fill="none" stroke="black" stroke-dasharray="5,2" d="M993.37,-89.18C904.08,-74.15 761.71,-50.18 668.66,-34.52"/>
<polygon fill="black" stroke="black" points="669.13,-31.05 658.69,-32.84 667.97,-37.95 669.13,-31.05"/>
<text text-anchor="middle" x="874.54" y="-56.8" font-family="Times,serif" font-size="14.00">Export</text>
</g>
<!-- open_source_photogrammetry&#45;&gt;blender -->
<g id="edge11" class="edge">
<title>open_source_photogrammetry&#45;&gt;blender</title>
<path fill="none" stroke="black" d="M229.64,-88.37C303.19,-73.66 416.41,-51.01 493.33,-35.63"/>
<polygon fill="black" stroke="black" points="494.34,-39 503.46,-33.6 492.97,-32.13 494.34,-39"/>
</g>
</g>
</svg>
